<?xml version="1.0" encoding="UTF-8" standalone="no"?>
<!DOCTYPE svg PUBLIC "-//W3C//DTD SVG 1.1//EN" "http://www.w3.org/Graphics/SVG/1.1/DTD/svg11.dtd">
<svg width="100%" height="100%" viewBox="0 0 400 400" version="1.1" xmlns="http://www.w3.org/2000/svg" xmlns:xlink="http://www.w3.org/1999/xlink" xml:space="preserve" xmlns:serif="http://www.serif.com/" style="fill-rule:evenodd;clip-rule:evenodd;stroke-linecap:round;stroke-linejoin:round;stroke-miterlimit:1.5;">
  <path d="M193.147,82.791c-7.366,0 -10.282,-10.937 -17.377,-12.898c-16.598,-4.589 -37.641,-8.621 -54.939,-5.77c-8.505,1.401 -39.685,17.162 -46.782,23.36c-17.413,15.206 -28.911,37.25 -34.001,59.232c-9.201,39.735 -16.709,65.57 -13.594,107.312c0.855,11.461 30.828,56.103 37.309,58.567c14.406,5.478 28.307,16.808 43.303,20.207c11.075,2.51 22.127,2.161 33.428,2.161c10.381,0 20.763,0 31.144,0c4.06,0 16.075,-4.589 15.347,-5.317" style="fill:none;stroke:#f00;stroke-width:12px;"/>
  <path d="M231.118,65.811c0,35.475 1.613,71.336 0,106.766c-0.68,14.923 -4.243,29.801 -5.093,44.749c-1.213,21.337 -3.614,42.245 -5.527,63.513c-1.502,16.697 3.636,33.782 3.636,50.54" style="fill:none;stroke:#00f193;stroke-width:8.5px;"/>
  <path d="M355.409,63.029c0,62.653 2.529,125.043 2.529,187.693c0,21.44 0.526,42.816 -1.606,64.07c-0.717,7.148 -1.839,14.07 -2.555,21.176c-0.189,1.874 -0.662,10.336 -0.662,9.446" style="fill:#ca0000;stroke:#00f193;stroke-width:8.5px;"/>
  <path d="M228.245,190.367c32.564,0 65.128,0 97.693,0c7.941,0 30.659,2.973 38.648,-1.08c0.226,-0.115 -5.045,0.285 -6.272,0.285c-0.481,0 -2.124,0 -2.118,0" style="fill:#b30b0b;stroke:#00f193;stroke-width:8.5px;"/>
</svg>
